<svg width="19" height="19" viewBox="0 0 19 19" fill="none" xmlns="http://www.w3.org/2000/svg">
<path d="M0.75 9.08333C0.75 4.48333 4.48333 0.75 9.08333 0.75C13.6833 0.75 17.4167 4.48333 17.4167 9.08333C17.4167 13.6833 13.6833 17.4167 9.08333 17.4167C4.48333 17.4167 0.75 13.6833 0.75 9.08333Z" stroke="white" stroke-width="1.5" stroke-linecap="round" stroke-linejoin="round"/>
<path d="M6.27499 11.8417C8.09166 11.3584 10.0167 11.5584 11.6917 12.4167" stroke="white" stroke-width="1.5" stroke-linecap="round" stroke-linejoin="round"/>
<path d="M5.33333 9.14169C6.24999 8.83335 7.23333 8.66669 8.24999 8.66669C9.93333 8.66669 11.5167 9.12502 12.875 9.91669" stroke="white" stroke-width="1.5" stroke-linecap="round" stroke-linejoin="round"/>
<path d="M4.91667 6.50833C6.06667 6.01667 7.33334 5.75 8.66667 5.75C10.675 5.75 12.5417 6.36667 14.0833 7.41667" stroke="white" stroke-width="1.5" stroke-linecap="round" stroke-linejoin="round"/>
</svg>
