<svg width="137" height="20" viewBox="0 0 137 20" fill="none" xmlns="http://www.w3.org/2000/svg">
<path d="M0 3.87097V0H16.6171V3.87097H10.6557V19.7208H5.97103V3.87097H0Z" fill="white"/>
<path d="M23.6921 20C22.1498 20 20.8186 19.6951 19.6986 19.0852C18.5851 18.4689 17.7275 17.5927 17.1259 16.4564C16.5307 15.3138 16.2331 13.956 16.2331 12.3832C16.2331 10.8554 16.5339 9.52014 17.1355 8.37747C17.7371 7.22837 18.5851 6.33606 19.6794 5.70053C20.7738 5.05858 22.0634 4.7376 23.5481 4.7376C24.5977 4.7376 25.5577 4.9013 26.428 5.22869C27.2984 5.55609 28.0504 6.04076 28.684 6.68272C29.3175 7.32467 29.8103 8.11748 30.1623 9.06115C30.5143 9.99839 30.6903 11.0737 30.6903 12.287V13.4617H17.8747V10.727H26.3224C26.316 10.2263 26.1976 9.78013 25.9672 9.38854C25.7369 8.99695 25.4201 8.69202 25.0169 8.47376C24.6201 8.24908 24.1625 8.13674 23.6441 8.13674C23.1193 8.13674 22.6489 8.2555 22.233 8.49302C21.817 8.72412 21.4874 9.04189 21.2442 9.44632C21.001 9.84433 20.873 10.2969 20.8602 10.804V13.5869C20.8602 14.1903 20.9786 14.7199 21.2154 15.1757C21.4522 15.6251 21.7882 15.975 22.2234 16.2253C22.6585 16.4757 23.1769 16.6009 23.7785 16.6009C24.1945 16.6009 24.5721 16.5431 24.9113 16.4275C25.2505 16.312 25.5417 16.1419 25.7848 15.9172C26.028 15.6925 26.2104 15.4165 26.332 15.0891L30.6423 15.2143C30.4631 16.1836 30.0695 17.0278 29.4615 17.7467C28.86 18.4593 28.0696 19.0146 27.0904 19.4126C26.1112 19.8042 24.9785 20 23.6921 20Z" fill="white"/>
<path d="M39.9708 20C38.4157 20 37.0813 19.679 35.9678 19.0371C34.8606 18.3951 34.0094 17.5028 33.4142 16.3601C32.819 15.211 32.5215 13.8822 32.5215 12.3736C32.5215 10.8586 32.819 9.52977 33.4142 8.3871C34.0158 7.238 34.8702 6.34248 35.9774 5.70053C37.0909 5.05858 38.4189 4.7376 39.9612 4.7376C41.3244 4.7376 42.5116 4.98475 43.5227 5.47906C44.5403 5.97336 45.3339 6.67309 45.9035 7.57824C46.4794 8.47697 46.7834 9.53298 46.8154 10.7463H42.4284C42.3388 9.98877 42.0828 9.39496 41.6604 8.96485C41.2444 8.53475 40.7004 8.31969 40.0284 8.31969C39.4845 8.31969 39.0077 8.47376 38.5981 8.7819C38.1885 9.08361 37.8685 9.53298 37.6381 10.13C37.4141 10.7206 37.3021 11.4524 37.3021 12.3255C37.3021 13.1985 37.4141 13.9368 37.6381 14.5402C37.8685 15.1372 38.1885 15.5898 38.5981 15.8979C39.0077 16.1996 39.4845 16.3505 40.0284 16.3505C40.4636 16.3505 40.8476 16.2574 41.1804 16.0713C41.5196 15.8851 41.798 15.6123 42.0156 15.2528C42.2332 14.8869 42.3708 14.4439 42.4284 13.9239H46.8154C46.7706 15.1436 46.4666 16.2093 45.9035 17.1208C45.3467 18.0324 44.5627 18.7418 43.5515 19.2489C42.5468 19.7496 41.3532 20 39.9708 20Z" fill="white"/>
<path d="M53.912 11.2855V19.7208H49.2178V0H53.7584V7.64564H53.9216C54.2544 6.73407 54.7984 6.0215 55.5536 5.50794C56.3152 4.99438 57.2463 4.7376 58.3471 4.7376C59.3839 4.7376 60.2862 4.96871 61.0542 5.43091C61.8222 5.8867 62.4174 6.53186 62.8398 7.36639C63.2686 8.20093 63.4798 9.1767 63.4734 10.2937V19.7208H58.7791V11.2181C58.7855 10.3964 58.5807 9.75445 58.1647 9.29225C57.7487 8.83004 57.1631 8.59894 56.408 8.59894C55.9152 8.59894 55.48 8.70807 55.1024 8.92634C54.7312 9.13818 54.44 9.44311 54.2288 9.84112C54.024 10.2391 53.9184 10.7206 53.912 11.2855Z" fill="white"/>
<path d="M69.7444 19.7208L64.0229 0H69.274L72.2403 12.9225H72.4035L75.7922 0H80.0737L83.4624 12.9514H83.6256L86.6015 0H91.8429L86.1311 19.7208H81.552L78.0097 7.76119H77.8561L74.3138 19.7208H69.7444Z" fill="url(#paint0_linear_12_336)"/>
<path d="M96.326 19.9711C95.3852 19.9711 94.55 19.8138 93.8205 19.4993C93.0973 19.1783 92.5245 18.6968 92.1021 18.0549C91.6861 17.4065 91.4781 16.5944 91.4781 15.6187C91.4781 14.797 91.6221 14.1037 91.9101 13.5388C92.1981 12.9738 92.5949 12.5148 93.1005 12.1618C93.6061 11.8087 94.1885 11.5423 94.8476 11.3625C95.5068 11.1764 96.2108 11.0512 96.9596 10.987C97.798 10.91 98.4731 10.8297 98.9851 10.7463C99.4971 10.6564 99.8683 10.5312 100.099 10.3707C100.335 10.2038 100.454 9.96951 100.454 9.66779V9.61964C100.454 9.12534 100.284 8.74338 99.9451 8.47376C99.6059 8.20414 99.1483 8.06933 98.5723 8.06933C97.9515 8.06933 97.4524 8.20414 97.0748 8.47376C96.6972 8.74338 96.4572 9.11571 96.3548 9.59076L92.0253 9.43669C92.1533 8.53796 92.4829 7.73552 93.0141 7.02937C93.5517 6.3168 94.2877 5.75831 95.222 5.35388C96.1628 4.94303 97.2924 4.7376 98.6107 4.7376C99.5515 4.7376 100.419 4.84994 101.212 5.07463C102.006 5.29289 102.697 5.61387 103.286 6.03755C103.875 6.45482 104.329 6.96838 104.649 7.57824C104.975 8.18809 105.139 8.88461 105.139 9.66779V19.7208H100.723V17.6601H100.607C100.345 18.1608 100.009 18.5845 99.5995 18.9312C99.1963 19.2778 98.7195 19.5378 98.1691 19.7111C97.6252 19.8844 97.0108 19.9711 96.326 19.9711ZM97.7756 16.8897C98.2811 16.8897 98.7355 16.787 99.1387 16.5816C99.5483 16.3762 99.8747 16.0937 100.118 15.7342C100.361 15.3683 100.483 14.9446 100.483 14.4632V13.0573C100.348 13.1279 100.185 13.1921 99.9931 13.2499C99.8075 13.3077 99.6027 13.3622 99.3787 13.4136C99.1547 13.4649 98.9243 13.5099 98.6875 13.5484C98.4507 13.5869 98.2235 13.6222 98.006 13.6543C97.5644 13.7249 97.1868 13.8341 96.8732 13.9817C96.566 14.1294 96.3292 14.3219 96.1628 14.5595C96.0028 14.7906 95.9228 15.0666 95.9228 15.3876C95.9228 15.8755 96.0956 16.2478 96.4412 16.5046C96.7932 16.7614 97.238 16.8897 97.7756 16.8897Z" fill="url(#paint1_linear_12_336)"/>
<path d="M121.784 4.93019L116.725 19.7208H111.35L106.3 4.93019H111.244L113.961 15.118H114.114L116.841 4.93019H121.784Z" fill="url(#paint2_linear_12_336)"/>
<path d="M130.002 20C128.459 20 127.128 19.6951 126.008 19.0852C124.895 18.4689 124.037 17.5927 123.436 16.4564C122.84 15.3138 122.543 13.956 122.543 12.3832C122.543 10.8554 122.844 9.52014 123.445 8.37747C124.047 7.22837 124.895 6.33606 125.989 5.70053C127.083 5.05858 128.373 4.7376 129.858 4.7376C130.907 4.7376 131.867 4.9013 132.738 5.22869C133.608 5.55609 134.36 6.04076 134.994 6.68272C135.627 7.32467 136.12 8.11748 136.472 9.06115C136.824 9.99839 137 11.0737 137 12.287V13.4617H124.184V10.727H132.632C132.626 10.2263 132.507 9.78013 132.277 9.38854C132.047 8.99695 131.73 8.69202 131.327 8.47376C130.93 8.24908 130.472 8.13674 129.954 8.13674C129.429 8.13674 128.959 8.2555 128.543 8.49302C128.127 8.72412 127.797 9.04189 127.554 9.44632C127.311 9.84433 127.183 10.2969 127.17 10.804V13.5869C127.17 14.1903 127.288 14.7199 127.525 15.1757C127.762 15.6251 128.098 15.975 128.533 16.2253C128.968 16.4757 129.487 16.6009 130.088 16.6009C130.504 16.6009 130.882 16.5431 131.221 16.4275C131.56 16.312 131.851 16.1419 132.095 15.9172C132.338 15.6925 132.52 15.4165 132.642 15.0891L136.952 15.2143C136.773 16.1836 136.379 17.0278 135.771 17.7467C135.17 18.4593 134.379 19.0146 133.4 19.4126C132.421 19.8042 131.288 20 130.002 20Z" fill="url(#paint3_linear_12_336)"/>
<defs>
<linearGradient id="paint0_linear_12_336" x1="20.335" y1="16.3179" x2="24.6908" y2="-10.4916" gradientUnits="userSpaceOnUse">
<stop stop-color="#F7E93F"/>
<stop offset="0.5112" stop-color="#FB09B4"/>
<stop offset="1" stop-color="#9100F8"/>
</linearGradient>
<linearGradient id="paint1_linear_12_336" x1="20.335" y1="16.3179" x2="24.6908" y2="-10.4916" gradientUnits="userSpaceOnUse">
<stop stop-color="#F7E93F"/>
<stop offset="0.5112" stop-color="#FB09B4"/>
<stop offset="1" stop-color="#9100F8"/>
</linearGradient>
<linearGradient id="paint2_linear_12_336" x1="20.335" y1="16.3179" x2="24.6908" y2="-10.4916" gradientUnits="userSpaceOnUse">
<stop stop-color="#F7E93F"/>
<stop offset="0.5112" stop-color="#FB09B4"/>
<stop offset="1" stop-color="#9100F8"/>
</linearGradient>
<linearGradient id="paint3_linear_12_336" x1="20.335" y1="16.3179" x2="24.6908" y2="-10.4916" gradientUnits="userSpaceOnUse">
<stop stop-color="#F7E93F"/>
<stop offset="0.5112" stop-color="#FB09B4"/>
<stop offset="1" stop-color="#9100F8"/>
</linearGradient>
</defs>
</svg>
